<?xml version="1.0" encoding="utf-8"?>
<!-- Designed by Vexels.com - 2020 All Rights Reserved - https://vexels.com/terms-and-conditions/  -->
<svg version="1.1" id="Capa_1" xmlns="http://www.w3.org/2000/svg" xmlns:xlink="http://www.w3.org/1999/xlink" x="0px" y="0px"
	 viewBox="0 0 1200 1200" enable-background="new 0 0 1200 1200" xml:space="preserve">
<g>
	<g id="XMLID_7_">
		<path fill="#47302B" d="M1127.6,597.002c13.184,17.559,33.098,44.08,15.417,63.811c-9.024,10.095-17.926,12.297-23.921,12.297
			c-0.122,0-0.214-0.031-0.337-0.031c-5.659-0.061-14.041-2.111-21.902-11.349c-58.458-69.072-185.162-71.795-251.114-28.02
			c-56.286,37.381-72.193,69.654-79.657,109.635c-0.918,5.017-1.315,11.747-1.713,18.905c-1.254,22.055-2.814,49.495-25.604,50.443
			c-1.009,0.031-1.988,0.061-2.967,0.061c-17.65,0-29.305-6.913-38.421-22.698l-127.652,6.21c-6.546,0.336-13.001-2.141-17.65-6.822
			c-4.65-4.65-7.128-11.104-6.76-17.65c5.047-95.961-21.505-179.686-74.701-235.758c-40.807-43.01-93.514-65.738-152.4-65.738
			c-106.086,0-157.936,35.423-175.281,50.688c-7.036,6.149-16.672,7.556-25.176,3.61c-8.473-3.946-13.643-12.175-13.46-21.505
			c0.367-21.78,18.14-44.661,52.768-68.032c59.069-39.828,113.428-44.417,135.3-44.417c0.122,0,0.214,0,0.306,0l16.58-89.17
			c-15.876-3.396-27.806-17.528-27.806-34.414c0-19.394,15.784-35.179,35.179-35.179h384.028c19.394,0,35.179,15.784,35.179,35.179
			s-15.784,35.179-35.179,35.179h-2.08v129.059c264.39,1.285,380.479,44.05,418.135,62.373c9.361,4.558,14.592,14.928,12.695,25.176
			l-11.777,63.75C1119.096,585.714,1124.143,592.444,1127.6,597.002z M1124.785,644.509c4.283-4.803-10.462-24.411-16.763-32.793
			c-9.422-12.511-16.213-21.566-14.897-31.11c0.031-0.184,0.061-0.367,0.092-0.551l11.961-64.759
			c-29.581-14.224-142.947-58.366-407.827-59.528c-12.817-0.061-23.248-10.523-23.248-23.31V290c0-6.76,5.476-12.236,12.236-12.236
			h14.316c5.904,0,10.707-4.803,10.707-10.707c0-5.904-4.803-10.707-10.707-10.707H316.627c-5.904,0-10.707,4.803-10.707,10.707
			c0,5.904,4.803,10.707,10.707,10.707h7.189c3.64,0,7.097,1.621,9.422,4.436c2.325,2.784,3.273,6.454,2.6,10.034l-19.272,103.853
			c-2.05,11.074-11.685,19.027-22.943,19.027c-0.398,0-0.826,0-1.285,0c-19.486,0-68.093,4.16-121.595,40.257
			c-32.64,22.025-40.165,37.565-41.664,45.243c25.359-21.352,82.195-54.787,189.138-54.787c64.82,0,125.236,26.063,170.142,73.386
			c57.632,60.721,86.539,150.381,81.461,252.552l127.071-6.179c0.398,0,0.795-0.031,1.193-0.031c8.382,0,16.06,4.466,20.22,11.838
			c4.619,8.137,7.984,10.982,17.926,10.89c2.417-4.741,3.243-19.302,3.701-27.409c0.459-7.953,0.887-15.479,2.111-21.994
			c8.351-44.998,26.919-83.541,90.18-125.572c75.71-50.26,215.966-46.956,283.325,32.609c1.805,2.141,3.12,2.692,3.548,2.723
			C1119.799,648.638,1121.879,647.751,1124.785,644.509z"/>
		<path fill="#F4A44D" d="M1108.022,611.716c6.302,8.382,21.046,27.99,16.763,32.793c-2.906,3.243-4.986,4.13-5.69,4.13
			c-0.428-0.031-1.744-0.581-3.548-2.723c-67.359-79.565-207.615-82.868-283.325-32.609c-63.26,42.031-81.828,80.574-90.18,125.572
			c-1.224,6.516-1.652,14.041-2.111,21.994c-0.459,8.106-1.285,22.667-3.701,27.409c-9.942,0.092-13.307-2.753-17.926-10.89
			c-4.16-7.372-11.838-11.838-20.22-11.838c-0.398,0-0.795,0.031-1.193,0.031l-127.071,6.179
			c5.078-102.171-23.83-191.83-81.461-252.552c-44.906-47.323-105.322-73.386-170.142-73.386
			c-106.943,0-163.779,33.435-189.138,54.787c1.499-7.678,9.024-23.218,41.664-45.243c53.502-36.096,102.11-40.257,121.595-40.257
			c0.459,0,0.887,0,1.285,0c11.257,0,20.893-7.953,22.943-19.027l19.272-103.853c0.673-3.579-0.275-7.25-2.6-10.034
			c-2.325-2.814-5.782-4.436-9.422-4.436h-7.189c-5.904,0-10.707-4.803-10.707-10.707c0-5.904,4.803-10.707,10.707-10.707h384.028
			c5.904,0,10.707,4.803,10.707,10.707c0,5.904-4.803,10.707-10.707,10.707h-14.316c-6.76,0-12.236,5.476-12.236,12.236v142.458
			c0,12.787,10.431,23.248,23.248,23.31c264.879,1.162,378.246,45.304,407.827,59.528l-11.961,64.759
			c-0.031,0.184-0.061,0.367-0.092,0.551C1091.809,590.15,1098.6,599.205,1108.022,611.716z M656.176,608.076V290
			c0-6.76-5.476-12.236-12.236-12.236H366.213c-5.996,0-11.104,4.344-12.083,10.278l-18.843,115.019
			c-0.581,3.487,0.398,7.066,2.661,9.789c2.233,2.723,5.567,4.344,9.116,4.436c0.428,0,45.029,1.407,95.441,26.155
			c66.992,32.854,112.327,89.384,134.688,168.001c1.499,5.261,6.302,8.871,11.747,8.871h55.001
			C650.701,620.312,656.176,614.836,656.176,608.076z"/>
		<path fill="#47302B" d="M1112.794,755.795c15.05-0.061,18.385,21.107,4.068,25.726c-0.336,0.092-0.612,0.245-0.918,0.367
			c0.306,4.007,0.52,8.076,0.52,12.175c0,4.099-0.214,8.137-0.52,12.144c0.306,0.122,0.581,0.275,0.918,0.398
			c14.316,4.589,10.982,25.757-4.068,25.696c-0.336,0-0.642,0.061-0.948,0.061c-1.927,7.984-4.436,15.723-7.525,23.187
			c0.245,0.214,0.459,0.428,0.704,0.612c12.205,8.81,2.478,27.898-11.808,23.187c-0.306-0.092-0.612-0.153-0.918-0.214
			c-4.283,6.913-9.085,13.49-14.347,19.669c0.184,0.275,0.306,0.551,0.52,0.826c8.902,12.144-6.271,27.317-18.415,18.415
			c-0.275-0.184-0.551-0.336-0.826-0.52c-6.179,5.262-12.756,10.064-19.669,14.347c0.061,0.306,0.122,0.612,0.214,0.918
			c4.711,14.286-14.377,24.013-23.187,11.808c-0.184-0.245-0.398-0.459-0.612-0.704c-7.464,3.09-15.203,5.598-23.187,7.525
			c0,0.306-0.061,0.612-0.061,0.948c0.031,8.473-6.638,13.215-13.307,13.215c-5.2,0-10.401-2.875-12.42-9.146
			c-0.092-0.336-0.245-0.612-0.367-0.918c-4.007,0.306-8.076,0.52-12.144,0.52c-4.099,0-8.168-0.214-12.175-0.52
			c-0.122,0.306-0.275,0.581-0.367,0.918c-4.619,14.316-25.787,10.982-25.726-4.068c0-0.336-0.061-0.642-0.061-0.948
			c-7.984-1.927-15.723-4.436-23.187-7.525c-0.214,0.245-0.428,0.459-0.612,0.704c-8.779,12.205-27.898,2.478-23.187-11.808
			c0.092-0.306,0.153-0.612,0.214-0.918c-6.913-4.283-13.49-9.085-19.669-14.347c-0.275,0.184-0.551,0.336-0.826,0.52
			c-12.144,8.902-27.317-6.271-18.415-18.415c0.214-0.275,0.336-0.551,0.52-0.826c-5.261-6.179-10.064-12.756-14.347-19.669
			c-0.306,0.061-0.612,0.122-0.918,0.214c-9.728,3.212-17.345-4.65-17.345-12.756c0-3.793,1.652-7.617,5.537-10.431
			c0.245-0.184,0.459-0.398,0.704-0.612c-3.059-7.464-5.598-15.203-7.525-23.187c-0.306,0-0.612-0.061-0.948-0.061
			c-15.05,0.061-18.385-21.107-4.068-25.696c0.336-0.122,0.612-0.275,0.918-0.398c-0.306-4.007-0.489-8.045-0.489-12.144
			c0-4.099,0.184-8.168,0.489-12.175c-0.306-0.122-0.581-0.275-0.918-0.367c-14.316-4.619-10.982-25.787,4.068-25.726
			c0.336,0,0.642-0.061,0.948-0.061c1.927-7.984,4.466-15.723,7.525-23.187c-0.245-0.214-0.459-0.428-0.704-0.612
			c-10.89-7.831-4.313-23.921,7.403-23.921c1.407,0,2.875,0.245,4.405,0.734c0.306,0.092,0.612,0.153,0.918,0.214
			c4.283-6.913,9.085-13.49,14.347-19.669c-0.184-0.275-0.306-0.551-0.52-0.826c-8.902-12.144,6.271-27.317,18.415-18.415
			c0.275,0.214,0.551,0.336,0.826,0.52c6.179-5.262,12.756-10.064,19.669-14.347c-0.061-0.306-0.122-0.612-0.214-0.918
			c-4.711-14.286,14.408-24.013,23.187-11.808c0.184,0.245,0.398,0.459,0.612,0.704c7.464-3.059,15.203-5.598,23.187-7.525
			c0-0.306,0.061-0.612,0.061-0.948c-0.061-15.05,21.107-18.385,25.726-4.068c0.092,0.336,0.245,0.612,0.367,0.918
			c4.007-0.306,8.076-0.489,12.175-0.489c4.068,0,8.137,0.184,12.144,0.489c0.122-0.306,0.275-0.581,0.367-0.918
			c4.619-14.316,25.787-10.982,25.726,4.068c0,0.336,0.061,0.642,0.061,0.948c7.984,1.927,15.723,4.466,23.187,7.525
			c0.214-0.245,0.428-0.459,0.612-0.704c8.81-12.205,27.898-2.478,23.187,11.808c-0.092,0.306-0.153,0.612-0.214,0.918
			c6.913,4.283,13.49,9.085,19.669,14.347c0.275-0.184,0.551-0.306,0.826-0.52c12.144-8.902,27.317,6.271,18.415,18.415
			c-0.214,0.275-0.336,0.551-0.52,0.826c5.261,6.179,10.064,12.756,14.347,19.669c0.306-0.061,0.612-0.122,0.918-0.214
			c9.728-3.212,17.345,4.65,17.345,12.756c0,3.793-1.652,7.648-5.537,10.431c-0.245,0.184-0.459,0.398-0.704,0.612
			c3.09,7.464,5.598,15.203,7.525,23.187C1112.152,755.734,1112.458,755.795,1112.794,755.795z M1055.835,794.063
			c0-55.98-45.396-101.345-101.345-101.345c-55.98,0-101.345,45.365-101.345,101.345c0,55.949,45.365,101.345,101.345,101.345
			C1010.44,895.408,1055.835,850.013,1055.835,794.063z"/>
		<path fill="#F4F0D7" d="M954.49,692.718c55.949,0,101.345,45.365,101.345,101.345c0,55.949-45.396,101.345-101.345,101.345
			c-55.98,0-101.345-45.396-101.345-101.345C853.146,738.083,898.511,692.718,954.49,692.718z M1015.854,794.063
			c0-33.863-27.531-61.394-61.364-61.394c-33.863,0-61.394,27.531-61.394,61.394c0,33.833,27.531,61.364,61.394,61.364
			C988.323,855.427,1015.854,827.896,1015.854,794.063z"/>
		<path fill="#47302B" d="M954.49,732.669c33.833,0,61.364,27.531,61.364,61.394c0,33.833-27.531,61.364-61.364,61.364
			c-33.863,0-61.394-27.531-61.394-61.364C893.096,760.2,920.627,732.669,954.49,732.669z M991.382,794.063
			c0-20.373-16.549-36.922-36.892-36.922c-20.373,0-36.922,16.549-36.922,36.922c0,20.342,16.549,36.892,36.922,36.892
			C974.833,830.955,991.382,814.406,991.382,794.063z"/>
		<path fill="#F4A44D" d="M954.49,757.141c20.342,0,36.892,16.549,36.892,36.922c0,20.342-16.549,36.892-36.892,36.892
			c-20.373,0-36.922-16.549-36.922-36.892C917.568,773.69,934.117,757.141,954.49,757.141z"/>
		<path fill="#47302B" d="M656.176,290v318.075c0,6.76-5.476,12.236-12.236,12.236h-55.001c-5.445,0-10.248-3.61-11.747-8.871
			c-22.361-78.616-67.696-135.147-134.688-168.001c-50.412-24.747-95.013-26.155-95.441-26.155
			c-3.548-0.092-6.883-1.713-9.116-4.436c-2.264-2.723-3.243-6.302-2.661-9.789l18.843-115.019
			c0.979-5.934,6.087-10.278,12.083-10.278H643.94C650.701,277.764,656.176,283.24,656.176,290z M631.704,595.84v-69.103
			l-80.727-98.164l-14.224,12.817c-2.325,2.111-5.262,3.151-8.168,3.151c-3.365,0-6.699-1.377-9.116-4.038
			c-4.527-5.047-4.099-12.787,0.918-17.283l47.476-42.765c5.017-4.527,12.756-4.13,17.283,0.918
			c4.527,5.017,4.099,12.756-0.918,17.253l-15.05,13.551l62.526,76.047V302.236H376.614l-15.05,91.709
			c18.385,2.202,52.768,8.596,90.73,27.042C501.758,445,566.517,494.74,598.055,595.84H631.704z"/>
		<path fill="#68C1C1" d="M631.704,526.737v69.103h-33.649C566.517,494.74,501.758,445,452.293,420.987
			c-37.962-18.446-72.345-24.839-90.73-27.042l15.05-91.709h255.091v185.988l-62.526-76.047l15.05-13.551
			c5.017-4.497,5.445-12.236,0.918-17.253c-4.527-5.047-12.267-5.445-17.283-0.918l-47.476,42.765
			c-5.017,4.497-5.445,12.236-0.918,17.283c2.417,2.661,5.751,4.038,9.116,4.038c2.906,0,5.843-1.04,8.168-3.151l14.224-12.817
			L631.704,526.737z"/>
		<path fill="#47302B" d="M507.998,676.812c20.893-0.092,25.573,29.305,5.659,35.699c-1.591,0.52-2.967,1.224-4.252,2.019
			c0.367,5.078,0.581,10.217,0.581,15.387c0,5.2-0.214,10.309-0.581,15.417c1.285,0.795,2.661,1.499,4.252,1.988
			c19.914,6.393,15.234,35.79-5.659,35.729c-1.621-0.031-3.151,0.214-4.589,0.581c-2.508,10.064-5.72,19.853-9.544,29.336
			c0.979,1.162,2.05,2.233,3.365,3.181c16.977,12.236,3.457,38.758-16.396,32.211c-1.56-0.52-3.09-0.734-4.589-0.857
			c-5.476,8.749-11.532,17.069-18.14,24.931c0.581,1.407,1.285,2.784,2.264,4.099c9.758,13.337-1.377,29.275-14.775,29.275
			c-3.548,0-7.28-1.132-10.798-3.701c-1.315-0.979-2.692-1.682-4.099-2.264c-7.862,6.607-16.182,12.664-24.931,18.14
			c0.092,1.499,0.336,3.028,0.857,4.589c6.546,19.853-19.975,33.374-32.211,16.396c-0.948-1.315-2.05-2.386-3.181-3.365
			c-9.483,3.824-19.272,7.036-29.336,9.544c-0.367,1.468-0.612,2.967-0.612,4.589c0.061,11.747-9.238,18.385-18.507,18.385
			c-7.189,0-14.408-4.007-17.192-12.725c-0.489-1.591-1.193-2.967-1.988-4.252c-5.109,0.367-10.217,0.612-15.417,0.612
			c-5.17,0-10.309-0.245-15.387-0.612c-0.795,1.285-1.53,2.661-2.019,4.252c-6.393,19.914-35.79,15.234-35.699-5.659
			c0-1.621-0.245-3.12-0.581-4.589c-10.095-2.508-19.884-5.72-29.366-9.544c-1.132,0.979-2.233,2.05-3.181,3.365
			c-10.89,15.173-33.221,5.996-33.221-10.278c0-1.958,0.306-4.007,1.009-6.118c0.52-1.56,0.765-3.09,0.857-4.589
			c-8.718-5.476-17.069-11.532-24.931-18.14c-1.377,0.581-2.753,1.285-4.099,2.264c-16.855,12.328-37.901-8.718-25.543-25.573
			c0.979-1.315,1.652-2.692,2.233-4.099c-6.607-7.862-12.664-16.182-18.14-24.931c-1.499,0.122-2.998,0.336-4.558,0.857
			c-19.884,6.546-33.374-19.975-16.427-32.211c1.346-0.948,2.417-2.019,3.365-3.181c-3.824-9.483-7.036-19.272-9.544-29.336
			c-1.438-0.367-2.937-0.612-4.589-0.581c-20.893,0.061-25.543-29.336-5.629-35.729c1.56-0.489,2.937-1.193,4.221-1.988
			c-0.336-5.109-0.581-10.217-0.581-15.417c0-5.17,0.245-10.309,0.581-15.387c-1.285-0.795-2.661-1.499-4.221-2.019
			c-19.914-6.393-15.264-35.79,5.629-35.699c1.652,0,3.151-0.245,4.589-0.581c2.508-10.095,5.72-19.884,9.544-29.366
			c-0.948-1.132-2.019-2.233-3.365-3.181c-15.142-10.89-5.996-33.221,10.309-33.221c1.958,0,4.007,0.306,6.118,1.009
			c1.56,0.52,3.059,0.765,4.558,0.887c5.476-8.749,11.532-17.1,18.14-24.961c-0.581-1.377-1.254-2.753-2.233-4.099
			c-9.758-13.307,1.315-29.244,14.744-29.244c3.548,0,7.25,1.101,10.798,3.701c1.346,0.979,2.723,1.652,4.099,2.233
			c7.862-6.607,16.213-12.664,24.931-18.14c-0.092-1.499-0.336-2.998-0.857-4.558c-4.436-13.521,6.485-24.136,17.742-24.136
			c5.261,0,10.584,2.325,14.469,7.709c0.948,1.346,2.05,2.417,3.181,3.365c9.483-3.824,19.272-7.036,29.366-9.544
			c0.336-1.438,0.581-2.937,0.581-4.589c-0.061-11.747,9.208-18.354,18.476-18.354c7.219,0,14.408,4.007,17.222,12.725
			c0.489,1.56,1.224,2.937,2.019,4.221c5.078-0.337,10.217-0.581,15.387-0.581c5.2,0,10.309,0.245,15.417,0.581
			c0.795-1.285,1.499-2.661,1.988-4.221c6.393-19.884,35.699-15.264,35.699,5.537c0,0.031,0,0.061,0,0.092
			c0,1.652,0.245,3.151,0.612,4.589c10.064,2.508,19.853,5.72,29.336,9.544c1.132-0.948,2.233-2.019,3.181-3.365
			c12.236-16.947,38.758-3.426,32.211,16.427c-0.52,1.56-0.765,3.09-0.857,4.558c8.749,5.476,17.069,11.532,24.931,18.14
			c1.407-0.581,2.784-1.254,4.099-2.233c16.855-12.358,37.901,8.688,25.573,25.543c-0.979,1.346-1.682,2.722-2.264,4.099
			c6.607,7.862,12.664,16.213,18.14,24.961c1.499-0.122,3.028-0.367,4.589-0.887c19.853-6.516,33.374,20.006,16.396,32.211
			c-1.315,0.948-2.386,2.049-3.365,3.181c3.824,9.483,7.036,19.272,9.544,29.366C504.847,676.567,506.377,676.812,507.998,676.812z
			 M446.726,729.916c0-87.549-70.969-158.548-158.548-158.548c-87.549,0-158.548,71-158.548,158.548
			c0,87.579,71,158.548,158.548,158.548C375.757,888.464,446.726,817.495,446.726,729.916z"/>
		<path fill="#F4F0D7" d="M288.178,571.368c87.579,0,158.548,71,158.548,158.548c0,87.579-70.969,158.548-158.548,158.548
			c-87.549,0-158.548-70.969-158.548-158.548C129.63,642.367,200.629,571.368,288.178,571.368z M405.46,729.916
			c0-64.667-52.615-117.282-117.282-117.282s-117.282,52.615-117.282,117.282s52.615,117.282,117.282,117.282
			S405.46,794.583,405.46,729.916z"/>
		<path fill="#47302B" d="M288.178,612.634c64.667,0,117.282,52.615,117.282,117.282s-52.615,117.282-117.282,117.282
			s-117.282-52.615-117.282-117.282S223.51,612.634,288.178,612.634z M380.988,729.916c0-51.177-41.633-92.81-92.81-92.81
			s-92.81,41.633-92.81,92.81c0,51.177,41.633,92.81,92.81,92.81S380.988,781.093,380.988,729.916z"/>
		<path fill="#F4A44D" d="M288.178,637.106c51.177,0,92.81,41.633,92.81,92.81c0,51.177-41.633,92.81-92.81,92.81
			s-92.81-41.633-92.81-92.81C195.368,678.739,237.001,637.106,288.178,637.106z M328.863,729.916
			c0-22.453-18.201-40.654-40.685-40.654c-22.453,0-40.685,18.201-40.685,40.654c0,22.484,18.232,40.685,40.685,40.685
			C310.661,770.601,328.863,752.4,328.863,729.916z"/>
		<path fill="#47302B" d="M288.178,689.262c22.484,0,40.685,18.201,40.685,40.654c0,22.484-18.201,40.685-40.685,40.685
			c-22.453,0-40.685-18.201-40.685-40.685C247.493,707.463,265.725,689.262,288.178,689.262z"/>
	</g>
</g>
</svg>
